<svg width="56" height="40" viewBox="0 0 56 40" fill="none" xmlns="http://www.w3.org/2000/svg">
<path d="M47.1435 13.4415L46.9933 13.25H46.75H40.5H40V13.75V20V20.5H40.5H51.65H52.6773L52.0435 19.6915L47.1435 13.4415ZM1 32V5C1 2.50114 3.00114 0.5 5.5 0.5H40V10V10.5H40.5H47.75L55 20.1667V32H50.5H50V32.5C50 36.3739 46.8739 39.5 43 39.5C39.1261 39.5 36 36.3739 36 32.5V32H35.5H20.5H20V32.5C20 36.3739 16.8739 39.5 13 39.5C9.12614 39.5 6 36.3739 6 32.5V32H5.5H1ZM5.5 4.5H5V5V27.5V28H5.5H7.4H7.62241L7.77134 27.8348C9.05663 26.4093 10.924 25.5 13 25.5C15.076 25.5 16.9434 26.4093 18.2287 27.8348L18.3776 28H18.6H35.5H36V27.5V5V4.5H35.5H5.5ZM43 36.75C45.3511 36.75 47.25 34.8511 47.25 32.5C47.25 30.1489 45.3511 28.25 43 28.25C40.6489 28.25 38.75 30.1489 38.75 32.5C38.75 34.8511 40.6489 36.75 43 36.75ZM13 36.75C15.3511 36.75 17.25 34.8511 17.25 32.5C17.25 30.1489 15.3511 28.25 13 28.25C10.6489 28.25 8.75 30.1489 8.75 32.5C8.75 34.8511 10.6489 36.75 13 36.75Z" fill="#523554" stroke="#523554"/>
</svg>
