<svg width="55" height="45" viewBox="0 0 55 45" fill="none" xmlns="http://www.w3.org/2000/svg">
<path d="M30.5 37.5C30.5 36.65 30.6 35.825 30.725 35H5.5V20H45.5V22.5C47.25 22.5 48.925 22.825 50.5 23.375V5C50.5 2.225 48.275 0 45.5 0H5.5C2.725 0 0.5 2.225 0.5 5V35C0.5 36.3261 1.02678 37.5979 1.96447 38.5355C2.90215 39.4732 4.17392 40 5.5 40H30.725C30.6 39.175 30.5 38.35 30.5 37.5ZM5.5 5H45.5V10H5.5V5ZM42.375 45L35.5 37.5L38.4 34.6L42.375 38.575L51.35 29.6L54.25 33.125L42.375 45Z" fill="#523554"/>
</svg>
