<svg width="46" height="50" viewBox="0 0 46 50" fill="none" xmlns="http://www.w3.org/2000/svg">
<path d="M0.5 27.5C0.5 33.4674 2.87053 39.1903 7.0901 43.4099C11.3097 47.6295 17.0326 50 23 50C23 44.0326 20.6295 38.3097 16.4099 34.0901C12.1903 29.8705 6.46737 27.5 0.5 27.5ZM6.6 33.6C11.375 35.375 15.125 39.125 16.9 43.9C14.543 43.0256 12.4026 41.6527 10.6249 39.8751C8.8473 38.0974 7.47438 35.957 6.6 33.6ZM23 50C28.9674 50 34.6903 47.6295 38.9099 43.4099C43.1295 39.1903 45.5 33.4674 45.5 27.5C39.5326 27.5 33.8097 29.8705 29.5901 34.0901C25.3705 38.3097 23 44.0326 23 50ZM29.05 43.925C29.9067 41.5373 31.2812 39.3687 33.075 37.575C34.8687 35.7812 37.0373 34.4067 39.425 33.55C38.5452 35.9247 37.1627 38.0813 35.372 39.872C33.5813 41.6627 31.4247 43.0452 29.05 43.925ZM23 30C26.9782 30 30.7936 28.4196 33.6066 25.6066C36.4197 22.7936 38 18.9782 38 15V2.5C36.1549 2.48437 34.3232 2.81509 32.6 3.475C31.225 4.05 30 4.9 28.975 5.975L23 0L17.025 5.975C16 4.9 14.775 4.05 13.4 3.475C11.6768 2.81509 9.84514 2.48437 8 2.5V15C8 18.9782 9.58035 22.7936 12.3934 25.6066C15.2064 28.4196 19.0218 30 23 30ZM13 9.025L16.925 13.15L23 7.075L29.075 13.15L33 9.025V15C33 17.6522 31.9464 20.1957 30.0711 22.0711C28.1957 23.9464 25.6522 25 23 25C20.3478 25 17.8043 23.9464 15.9289 22.0711C14.0536 20.1957 13 17.6522 13 15V9.025Z" fill="#523554"/>
</svg>
