<svg width="50" height="45" viewBox="0 0 50 45" fill="none" xmlns="http://www.w3.org/2000/svg">
<path d="M12.5 7H13.3284L13.9142 6.41421L18.3284 2H31.6716L36.0858 6.41421L36.6716 7H37.5H45C45.7957 7 46.5587 7.31607 47.1213 7.87868C47.6839 8.44129 48 9.20435 48 10V40C48 40.7957 47.6839 41.5587 47.1213 42.1213C46.5587 42.6839 45.7957 43 45 43H5C4.20435 43 3.44129 42.6839 2.87868 42.1213C2.31607 41.5587 2 40.7957 2 40V10C2 9.20435 2.31607 8.44129 2.87868 7.87868C3.44129 7.31607 4.20435 7 5 7H12.5ZM25 10.5C21.1544 10.5 17.4662 12.0277 14.747 14.747C12.0277 17.4662 10.5 21.1544 10.5 25C10.5 28.8456 12.0277 32.5338 14.747 35.2531C17.4662 37.9723 21.1544 39.5 25 39.5C28.8456 39.5 32.5338 37.9723 35.2531 35.2531C37.9723 32.5338 39.5 28.8456 39.5 25C39.5 21.1544 37.9723 17.4662 35.253 14.747C32.5338 12.0277 28.8456 10.5 25 10.5ZM25 19.5C26.4587 19.5 27.8576 20.0795 28.8891 21.1109C29.9205 22.1424 30.5 23.5413 30.5 25C30.5 26.4587 29.9205 27.8576 28.8891 28.8891C27.8576 29.9205 26.4587 30.5 25 30.5C23.5413 30.5 22.1424 29.9205 21.1109 28.8891C20.0795 27.8576 19.5 26.4587 19.5 25C19.5 23.5413 20.0795 22.1424 21.1109 21.1109C22.1424 20.0795 23.5413 19.5 25 19.5Z" stroke="#523554" stroke-width="4"/>
</svg>
