<svg width="24" height="29" viewBox="0 0 24 29" fill="none" xmlns="http://www.w3.org/2000/svg">
<path d="M21.5 27.8145H2C1.33888 27.6942 1.06574 27.5304 1 26.8145L3.5 11.8145C3.7723 11.4122 3.97513 11.2818 4.5 11.3145H20C20.3974 11.5757 20.4535 11.9904 20.5 12.8145L23 26.8145C22.7572 27.5493 22.4448 27.7844 21.5 27.8145Z" stroke="#313131"/>
<circle cx="7.5" cy="15.8145" r="1.25" stroke="#313131" stroke-width="0.5"/>
<circle cx="16.5" cy="15.8145" r="1.25" stroke="#313131" stroke-width="0.5"/>
<path d="M7.5 14.8145C7.5 14.8145 7.5 11.3145 7.5 5.31452C7.5 -0.68546 16.5 -0.185457 16.5 5.31452C16.5 10.8145 16.5 14.8145 16.5 14.8145" stroke="#313131"/>
</svg>
