<svg width="29" height="29" viewBox="0 0 29 29" fill="none" xmlns="http://www.w3.org/2000/svg">
<path d="M17.8396 19.2543L18.1066 19.9551L18.1474 19.9396L18.1862 19.9194C18.1857 19.9196 18.1857 19.9196 18.1863 19.9194C18.1892 19.9181 18.2069 19.9103 18.2445 19.8996C18.287 19.8875 18.3431 19.8751 18.412 19.864C18.5508 19.8419 18.7177 19.8293 18.8891 19.8297C19.0612 19.8301 19.2205 19.8435 19.3457 19.8659C19.4499 19.8846 19.4943 19.9032 19.4993 19.9045C19.7827 20.0989 20.0436 20.2979 20.3074 20.5022C20.3441 20.5306 20.3809 20.5592 20.418 20.588C20.649 20.7673 20.8883 20.9531 21.1344 21.129C21.7184 21.5464 22.3711 21.9315 23.2419 22.1906C23.3266 22.2158 23.3777 22.2314 23.4186 22.2462C23.4328 22.2514 23.4431 22.2555 23.4503 22.2585C23.4539 22.2641 23.4588 22.272 23.4647 22.2826C23.5307 22.4 23.5437 22.5312 23.5089 22.6482L22.2716 26.8064C22.2368 26.9234 22.1543 27.0262 22.0348 27.0884C21.9143 27.1512 21.7664 27.1669 21.6246 27.1247C16.2793 25.5342 11.7695 21.9527 9.08417 17.1745C6.3994 12.3974 5.75797 6.81611 7.29284 1.6576C7.32765 1.54063 7.4102 1.43787 7.5297 1.3756C7.6502 1.31281 7.79807 1.29717 7.93985 1.33936L12.2317 2.61637C12.3735 2.65855 12.4888 2.75248 12.5553 2.87094C12.6214 2.98841 12.6343 3.11958 12.5995 3.23656C12.1346 4.79901 11.9455 6.37758 12.0056 7.9225C12.0085 8.0987 11.9217 8.2615 11.7416 8.35533L11.671 8.39211L11.6097 8.44289L12.0882 9.02044C11.6097 8.44289 11.6096 8.44296 11.6095 8.44304L11.6093 8.44321L11.6089 8.4436L11.6076 8.44466L11.6039 8.44777L11.5918 8.45791C11.5818 8.46637 11.5679 8.47821 11.5506 8.49311C11.5162 8.52286 11.4681 8.56504 11.4109 8.61705C11.2976 8.7202 11.1439 8.86613 10.988 9.0334C10.8352 9.19745 10.6639 9.39935 10.527 9.61412C10.4062 9.80353 10.236 10.1176 10.2417 10.4798C10.2436 10.5986 10.2713 10.7002 10.2842 10.7453C10.3011 10.8047 10.3223 10.8644 10.3434 10.9196C10.3859 11.0307 10.4432 11.1617 10.5093 11.3039C10.6424 11.5902 10.8287 11.9596 11.0496 12.379C11.4926 13.2195 12.0889 14.2873 12.7113 15.3443C13.3327 16.3996 13.9869 17.4556 14.5451 18.2683C14.823 18.6729 15.0867 19.0312 15.317 19.3025C15.4315 19.4373 15.5494 19.5647 15.6661 19.6688C15.7614 19.7538 15.938 19.9003 16.168 19.9643C16.7061 20.114 17.1698 20.1199 17.5081 20.0846C17.677 20.0669 17.8149 20.039 17.916 20.0134C17.9666 20.0006 18.0082 19.9883 18.0402 19.9781C18.0561 19.973 18.0697 19.9684 18.0808 19.9645L18.0956 19.9592L18.1015 19.957L18.1042 19.956L18.1054 19.9556L18.106 19.9554C18.1063 19.9553 18.1066 19.9551 17.8396 19.2543Z" stroke="#313131" stroke-width="1.5"/>
</svg>
